<svg xmlns="http://www.w3.org/2000/svg" xmlns:xlink="http://www.w3.org/1999/xlink" width="578" height="421" xmlns:v="https://vecta.io/nano"><defs><filter id="A" width="226.1%" height="226%" x="-63%" y="-63%"><feOffset in="SourceAlpha"/><feGaussianBlur stdDeviation="7"/><feColorMatrix result="C" values="0 0 0 0 0.062745098 0 0 0 0 0.156862745 0 0 0 0 0.364705882 0 0 0 0.335517937 0"/><feMerge><feMergeNode in="C"/><feMergeNode in="SourceGraphic"/></feMerge></filter><filter id="B" width="145.4%" height="145.4%" x="-22.7%" y="-22.7%"><feMorphology in="SourceAlpha" operator="dilate" radius=".95"/><feOffset/><feGaussianBlur stdDeviation="4"/><feComposite in2="SourceAlpha" operator="out"/><feColorMatrix values="0 0 0 0 0.062745098 0 0 0 0 0.156862745 0 0 0 0 0.364705882 0 0 0 0.358265377 0"/></filter><filter id="C" width="125.7%" height="150.3%" x="-12.9%" y="-25.2%"><feOffset in="SourceAlpha"/><feGaussianBlur stdDeviation="12"/><feColorMatrix values="0 0 0 0 0.062745098 0 0 0 0 0.156862745 0 0 0 0 0.364705882 0 0 0 0.36 0"/></filter><filter id="D" width="181.2%" height="181.2%" x="-40.6%" y="-40.6%"><feMorphology in="SourceAlpha" operator="dilate" radius="1"/><feOffset/><feGaussianBlur stdDeviation="4"/><feComposite in2="SourceAlpha" operator="out"/><feColorMatrix values="0 0 0 0 0.062745098 0 0 0 0 0.156862745 0 0 0 0 0.364705882 0 0 0 0.358265377 0"/></filter><filter id="E" width="125.8%" height="157.6%" x="-12.9%" y="-28.8%"><feOffset in="SourceAlpha"/><feGaussianBlur stdDeviation="12"/><feColorMatrix values="0 0 0 0 0.062745098 0 0 0 0 0.156862745 0 0 0 0 0.364705882 0 0 0 0.36 0"/></filter><path id="F" d="M0 28.53c0 7.605 3.013 14.883 8.351 20.17a28.51 28.51 0 0 0 40.335 0c5.338-5.287 8.353-12.565 8.353-20.17s-3.015-14.885-8.353-20.172C43.063 2.787 35.791 0 28.518 0S13.974 2.787 8.351 8.358C3.013 13.645 0 20.922 0 28.53z"/><path id="G" d="M264.04 0C272.854 0 280 7.146 280 15.96v98.08c0 8.814-7.146 15.96-15.96 15.96l-223.924.002C26.268 139.769 12.896 144.032 0 142.79c7.661-1.467 11.733-11.572 12.217-30.315v-8.084l-.124-3.827h0l.123.171V15.96C12.216 7.146 19.362 0 28.176 0H264.04z"/><path id="H" d="M16 32C7.163 32 0 24.836 0 16S7.163 0 16 0s16 7.164 16 16-7.163 16-16 16z"/><path id="I" d="M251.824 0c8.814 0 15.96 7.146 15.96 15.96v78.08c0 1.197-.132 2.364-.382 3.486.834 16.79 4.869 25.878 12.103 27.264-13.745 1.323-28.031-3.606-42.858-14.789L15.96 110C7.146 110 0 102.854 0 94.04V15.96C0 7.146 7.146 0 15.96 0h235.864z"/><path id="J" d="M32.148 28.515h1.64v6.568h-1.64z"/><path id="K" d="M35.427 25.231h1.64v13.137h-1.64z"/><path id="L" d="M38.706 23.588h1.64v18.063h-1.64z"/><path id="M" d="M80.58 83.669h4.914a4.21 4.21 0 0 0 .065-.728c0-1.755-1.287-3.055-3.055-3.055-1.846 0-3.276 1.495-3.276 3.458 0 1.937 1.209 3.432 3.276 3.432 1.352 0 2.236-.494 2.912-1.56l-.936-.611c-.403.715-1.04 1.04-1.911 1.04-1.17 0-1.898-.897-1.989-1.976zm3.588-1.027h-3.51c.234-.923.858-1.638 1.872-1.638.923 0 1.586.741 1.638 1.638z"/><path id="N" d="M90.538 80.042v9.828h1.339v-3.952c.52.546 1.3.858 2.041.858 1.95 0 3.25-1.664 3.25-3.432 0-1.924-1.365-3.458-3.224-3.458-.767 0-1.625.338-2.093 1.027l-.039-.871h-1.274zm1.339 2.223c.338-.78 1.17-1.17 1.846-1.17 1.287 0 2.08 1.053 2.08 2.223 0 1.079-.676 2.249-2.106 2.249-.65 0-1.378-.325-1.82-.949v-2.353z"/></defs><g fill="none" fill-rule="evenodd" transform="translate(0 12)"><path d="M187.265 378.362c.754 0 1.364.611 1.364 1.363s-.61 1.363-1.364 1.363-1.364-.611-1.364-1.363.611-1.363 1.364-1.363zm18.265 0c.754 0 1.364.611 1.364 1.363s-.61 1.363-1.364 1.363-1.364-.611-1.364-1.363.611-1.363 1.364-1.363zm18.266 0c.753 0 1.364.611 1.364 1.363s-.611 1.363-1.364 1.363-1.364-.611-1.364-1.363.61-1.363 1.364-1.363zm18.265 0c.753 0 1.364.611 1.364 1.363s-.611 1.363-1.364 1.363-1.364-.611-1.364-1.363.61-1.363 1.364-1.363zm18.265 0c.753 0 1.364.611 1.364 1.363s-.611 1.363-1.364 1.363-1.364-.611-1.364-1.363.61-1.363 1.364-1.363zm18.265 0c.753 0 1.364.611 1.364 1.363s-.611 1.363-1.364 1.363-1.364-.611-1.364-1.363.611-1.363 1.364-1.363zm18.265 0c.753 0 1.364.611 1.364 1.363s-.611 1.363-1.364 1.363-1.364-.611-1.364-1.363.611-1.363 1.364-1.363zm-118.019-14.046c.753 0 1.364.611 1.364 1.363s-.611 1.363-1.364 1.363-1.364-.61-1.364-1.363.611-1.363 1.364-1.363zm18.265 0c.753 0 1.364.611 1.364 1.363s-.611 1.363-1.364 1.363-1.364-.61-1.364-1.363.611-1.363 1.364-1.363zm18.265 0c.754 0 1.364.611 1.364 1.363s-.61 1.363-1.364 1.363-1.364-.61-1.364-1.363.611-1.363 1.364-1.363zm18.265 0c.754 0 1.364.611 1.364 1.363s-.61 1.363-1.364 1.363-1.364-.61-1.364-1.363.611-1.363 1.364-1.363zm18.265 0c.754 0 1.364.611 1.364 1.363s-.61 1.363-1.364 1.363-1.364-.61-1.364-1.363.611-1.363 1.364-1.363zm18.266 0c.753 0 1.364.611 1.364 1.363s-.611 1.363-1.364 1.363-1.364-.61-1.364-1.363.61-1.363 1.364-1.363zm18.265 0c.753 0 1.364.611 1.364 1.363s-.611 1.363-1.364 1.363-1.364-.61-1.364-1.363.61-1.363 1.364-1.363zm-101.16-15.45c.754 0 1.364.611 1.364 1.363s-.61 1.363-1.364 1.363-1.364-.61-1.364-1.363.611-1.363 1.364-1.363zm18.265 0c.754 0 1.364.611 1.364 1.363s-.61 1.363-1.364 1.363-1.364-.61-1.364-1.363.611-1.363 1.364-1.363zm18.266 0c.753 0 1.364.611 1.364 1.363s-.611 1.363-1.364 1.363-1.364-.61-1.364-1.363.61-1.363 1.364-1.363zm18.265 0c.753 0 1.364.611 1.364 1.363s-.611 1.363-1.364 1.363-1.364-.61-1.364-1.363.61-1.363 1.364-1.363zm18.265 0c.753 0 1.364.611 1.364 1.363s-.611 1.363-1.364 1.363-1.364-.61-1.364-1.363.61-1.363 1.364-1.363zm18.265 0c.753 0 1.364.611 1.364 1.363s-.611 1.363-1.364 1.363-1.364-.61-1.364-1.363.611-1.363 1.364-1.363zm18.265 0c.753 0 1.364.611 1.364 1.363s-.611 1.363-1.364 1.363-1.364-.61-1.364-1.363.611-1.363 1.364-1.363zM178.84 334.821c.753 0 1.364.611 1.364 1.363s-.611 1.363-1.364 1.363-1.364-.611-1.364-1.363.611-1.363 1.364-1.363zm18.265 0c.753 0 1.364.611 1.364 1.363s-.611 1.363-1.364 1.363-1.364-.611-1.364-1.363.611-1.363 1.364-1.363zm18.265 0c.754 0 1.364.611 1.364 1.363s-.61 1.363-1.364 1.363-1.364-.611-1.364-1.363.611-1.363 1.364-1.363zm18.265 0c.754 0 1.364.611 1.364 1.363s-.61 1.363-1.364 1.363-1.364-.611-1.364-1.363.611-1.363 1.364-1.363zm18.265 0c.754 0 1.364.611 1.364 1.363s-.61 1.363-1.364 1.363-1.364-.611-1.364-1.363.611-1.363 1.364-1.363zm18.266 0c.753 0 1.364.611 1.364 1.363s-.611 1.363-1.364 1.363-1.364-.611-1.364-1.363.61-1.363 1.364-1.363zm18.265 0c.753 0 1.364.611 1.364 1.363s-.611 1.363-1.364 1.363-1.364-.611-1.364-1.363.61-1.363 1.364-1.363zm-64.629-15.45c.753 0 1.364.611 1.364 1.363s-.611 1.363-1.364 1.363-1.364-.611-1.364-1.363.61-1.363 1.364-1.363zm18.265 0c.753 0 1.364.611 1.364 1.363s-.611 1.363-1.364 1.363-1.364-.611-1.364-1.363.61-1.363 1.364-1.363zm18.265 0c.753 0 1.364.611 1.364 1.363s-.611 1.363-1.364 1.363-1.364-.611-1.364-1.363.61-1.363 1.364-1.363zm-73.06 0c.754 0 1.364.611 1.364 1.363s-.61 1.363-1.364 1.363-1.364-.611-1.364-1.363.611-1.363 1.364-1.363zm18.265 0c.754 0 1.364.611 1.364 1.363s-.61 1.363-1.364 1.363-1.364-.611-1.364-1.363.611-1.363 1.364-1.363zm73.06 0c.753 0 1.364.611 1.364 1.363s-.611 1.363-1.364 1.363-1.364-.611-1.364-1.363.611-1.363 1.364-1.363zm18.265 0c.753 0 1.364.611 1.364 1.363s-.611 1.363-1.364 1.363-1.364-.611-1.364-1.363.611-1.363 1.364-1.363zm-8.43-14.045c.753 0 1.364.61 1.364 1.363s-.611 1.363-1.364 1.363-1.364-.611-1.364-1.363.61-1.363 1.364-1.363zm-109.589 0c.753 0 1.364.61 1.364 1.363s-.611 1.363-1.364 1.363-1.364-.611-1.364-1.363.611-1.363 1.364-1.363zm36.529 0c.754 0 1.364.61 1.364 1.363s-.61 1.363-1.364 1.363-1.364-.611-1.364-1.363.611-1.363 1.364-1.363zm36.53 0c.754 0 1.364.61 1.364 1.363s-.61 1.363-1.364 1.363-1.364-.611-1.364-1.363.611-1.363 1.364-1.363zm-54.794 0c.753 0 1.364.61 1.364 1.363s-.611 1.363-1.364 1.363-1.364-.611-1.364-1.363.611-1.363 1.364-1.363zm73.06 0c.753 0 1.364.61 1.364 1.363s-.611 1.363-1.364 1.363-1.364-.611-1.364-1.363.61-1.363 1.364-1.363zm-36.53 0c.754 0 1.364.61 1.364 1.363s-.61 1.363-1.364 1.363-1.364-.611-1.364-1.363.611-1.363 1.364-1.363zm-46.365-15.45c.754 0 1.364.61 1.364 1.363s-.61 1.363-1.364 1.363-1.364-.611-1.364-1.363.611-1.363 1.364-1.363zm18.265 0c.754 0 1.364.61 1.364 1.363s-.61 1.363-1.364 1.363-1.364-.611-1.364-1.363.611-1.363 1.364-1.363zm18.266 0c.753 0 1.364.61 1.364 1.363s-.611 1.363-1.364 1.363-1.364-.611-1.364-1.363.61-1.363 1.364-1.363zm18.265 0c.753 0 1.364.61 1.364 1.363s-.611 1.363-1.364 1.363-1.364-.611-1.364-1.363.61-1.363 1.364-1.363zm18.265 0c.753 0 1.364.61 1.364 1.363s-.611 1.363-1.364 1.363-1.364-.611-1.364-1.363.61-1.363 1.364-1.363zm18.265 0c.753 0 1.364.61 1.364 1.363s-.611 1.363-1.364 1.363-1.364-.611-1.364-1.363.611-1.363 1.364-1.363zm18.265 0c.753 0 1.364.61 1.364 1.363s-.611 1.363-1.364 1.363-1.364-.611-1.364-1.363.611-1.363 1.364-1.363zM178.845 275.83c.753 0 1.364.611 1.364 1.363s-.611 1.363-1.364 1.363-1.364-.611-1.364-1.363.611-1.363 1.364-1.363zm18.265 0c.753 0 1.364.611 1.364 1.363s-.611 1.363-1.364 1.363-1.364-.611-1.364-1.363.611-1.363 1.364-1.363zm18.265 0c.754 0 1.364.611 1.364 1.363s-.61 1.363-1.364 1.363-1.364-.611-1.364-1.363.611-1.363 1.364-1.363zm18.265 0c.754 0 1.364.611 1.364 1.363s-.61 1.363-1.364 1.363-1.364-.611-1.364-1.363.611-1.363 1.364-1.363zm18.265 0c.754 0 1.364.611 1.364 1.363s-.61 1.363-1.364 1.363-1.364-.611-1.364-1.363.611-1.363 1.364-1.363zm18.266 0c.753 0 1.364.611 1.364 1.363s-.611 1.363-1.364 1.363-1.364-.611-1.364-1.363.61-1.363 1.364-1.363zm18.265 0c.753 0 1.364.611 1.364 1.363s-.611 1.363-1.364 1.363-1.364-.611-1.364-1.363.61-1.363 1.364-1.363zm154.295-173.3c.754 0 1.364.611 1.364 1.363s-.61 1.363-1.364 1.363-1.364-.611-1.364-1.363.611-1.363 1.364-1.363zm18.265 0c.754 0 1.364.611 1.364 1.363s-.61 1.363-1.364 1.363-1.364-.611-1.364-1.363.611-1.363 1.364-1.363zm18.266 0c.753 0 1.364.611 1.364 1.363s-.611 1.363-1.364 1.363-1.364-.611-1.364-1.363.61-1.363 1.364-1.363zm18.265 0c.753 0 1.364.611 1.364 1.363s-.611 1.363-1.364 1.363-1.364-.611-1.364-1.363.61-1.363 1.364-1.363zm18.265 0c.753 0 1.364.611 1.364 1.363s-.611 1.363-1.364 1.363-1.364-.611-1.364-1.363.61-1.363 1.364-1.363zm18.265 0c.753 0 1.364.611 1.364 1.363s-.611 1.363-1.364 1.363-1.364-.611-1.364-1.363.611-1.363 1.364-1.363zm18.265 0c.753 0 1.364.611 1.364 1.363s-.611 1.363-1.364 1.363-1.364-.611-1.364-1.363.611-1.363 1.364-1.363zm-118.02-14.046c.753 0 1.364.611 1.364 1.363s-.611 1.363-1.364 1.363-1.364-.61-1.364-1.363.611-1.363 1.364-1.363zm18.265 0c.753 0 1.364.611 1.364 1.363s-.611 1.363-1.364 1.363-1.364-.61-1.364-1.363.611-1.363 1.364-1.363zm18.265 0c.754 0 1.364.611 1.364 1.363s-.61 1.363-1.364 1.363-1.364-.61-1.364-1.363.611-1.363 1.364-1.363zm18.265 0c.754 0 1.364.611 1.364 1.363s-.61 1.363-1.364 1.363-1.364-.61-1.364-1.363.611-1.363 1.364-1.363zm18.265 0c.754 0 1.364.611 1.364 1.363s-.61 1.363-1.364 1.363-1.364-.61-1.364-1.363.611-1.363 1.364-1.363zm18.266 0c.753 0 1.364.611 1.364 1.363s-.611 1.363-1.364 1.363-1.364-.61-1.364-1.363.61-1.363 1.364-1.363zm18.265 0c.753 0 1.364.611 1.364 1.363s-.611 1.363-1.364 1.363-1.364-.61-1.364-1.363.61-1.363 1.364-1.363zm-101.16-15.45c.754 0 1.364.611 1.364 1.363s-.61 1.363-1.364 1.363-1.364-.61-1.364-1.363.611-1.363 1.364-1.363zm18.265 0c.754 0 1.364.611 1.364 1.363s-.61 1.363-1.364 1.363-1.364-.61-1.364-1.363.611-1.363 1.364-1.363zm18.266 0c.753 0 1.364.611 1.364 1.363s-.611 1.363-1.364 1.363-1.364-.61-1.364-1.363.61-1.363 1.364-1.363zm18.265 0c.753 0 1.364.611 1.364 1.363s-.611 1.363-1.364 1.363-1.364-.61-1.364-1.363.61-1.363 1.364-1.363zm18.265 0c.753 0 1.364.611 1.364 1.363s-.611 1.363-1.364 1.363-1.364-.61-1.364-1.363.61-1.363 1.364-1.363zm18.265 0c.753 0 1.364.611 1.364 1.363s-.611 1.363-1.364 1.363-1.364-.61-1.364-1.363.611-1.363 1.364-1.363zm18.265 0c.753 0 1.364.611 1.364 1.363s-.611 1.363-1.364 1.363-1.364-.61-1.364-1.363.611-1.363 1.364-1.363zM434.302 58.99c.753 0 1.364.611 1.364 1.363s-.611 1.363-1.364 1.363-1.364-.611-1.364-1.363.611-1.363 1.364-1.363zm18.265 0c.753 0 1.364.611 1.364 1.363s-.611 1.363-1.364 1.363-1.364-.611-1.364-1.363.611-1.363 1.364-1.363zm18.265 0c.754 0 1.364.611 1.364 1.363s-.61 1.363-1.364 1.363-1.364-.611-1.364-1.363.611-1.363 1.364-1.363zm18.265 0c.754 0 1.364.611 1.364 1.363s-.61 1.363-1.364 1.363-1.364-.611-1.364-1.363.611-1.363 1.364-1.363zm18.265 0c.754 0 1.364.611 1.364 1.363s-.61 1.363-1.364 1.363-1.364-.611-1.364-1.363.611-1.363 1.364-1.363zm18.266 0c.753 0 1.364.611 1.364 1.363s-.611 1.363-1.364 1.363-1.364-.611-1.364-1.363.61-1.363 1.364-1.363zm18.265 0c.753 0 1.364.611 1.364 1.363s-.611 1.363-1.364 1.363-1.364-.611-1.364-1.363.61-1.363 1.364-1.363zm-64.629-15.45c.753 0 1.364.611 1.364 1.363s-.611 1.363-1.364 1.363-1.364-.611-1.364-1.363.61-1.363 1.364-1.363zm18.265 0c.753 0 1.364.611 1.364 1.363s-.611 1.363-1.364 1.363-1.364-.611-1.364-1.363.61-1.363 1.364-1.363zm18.265 0c.753 0 1.364.611 1.364 1.363s-.611 1.363-1.364 1.363-1.364-.611-1.364-1.363.61-1.363 1.364-1.363zm-73.06 0c.754 0 1.364.611 1.364 1.363s-.61 1.363-1.364 1.363-1.364-.611-1.364-1.363.611-1.363 1.364-1.363zm18.265 0c.754 0 1.364.611 1.364 1.363s-.61 1.363-1.364 1.363-1.364-.611-1.364-1.363.611-1.363 1.364-1.363zm73.06 0c.753 0 1.364.611 1.364 1.363s-.611 1.363-1.364 1.363-1.364-.611-1.364-1.363.611-1.363 1.364-1.363zm18.265 0c.753 0 1.364.611 1.364 1.363s-.611 1.363-1.364 1.363-1.364-.611-1.364-1.363.611-1.363 1.364-1.363zm-8.43-14.045c.753 0 1.364.61 1.364 1.363s-.611 1.363-1.364 1.363-1.364-.611-1.364-1.363.61-1.363 1.364-1.363zm-109.589 0c.753 0 1.364.61 1.364 1.363s-.611 1.363-1.364 1.363-1.364-.611-1.364-1.363.611-1.363 1.364-1.363zm36.529 0c.754 0 1.364.61 1.364 1.363s-.61 1.363-1.364 1.363-1.364-.611-1.364-1.363.611-1.363 1.364-1.363zm36.53 0c.754 0 1.364.61 1.364 1.363s-.61 1.363-1.364 1.363S506 31.61 506 30.858s.611-1.363 1.364-1.363zm-54.794 0c.753 0 1.364.61 1.364 1.363s-.611 1.363-1.364 1.363-1.364-.611-1.364-1.363.611-1.363 1.364-1.363zm73.06 0c.753 0 1.364.61 1.364 1.363s-.611 1.363-1.364 1.363-1.364-.611-1.364-1.363.61-1.363 1.364-1.363zm-36.53 0c.754 0 1.364.61 1.364 1.363s-.61 1.363-1.364 1.363-1.364-.611-1.364-1.363.611-1.363 1.364-1.363zm-46.365-15.45c.754 0 1.364.61 1.364 1.363s-.61 1.363-1.364 1.363-1.364-.611-1.364-1.363.611-1.363 1.364-1.363zm18.265 0c.754 0 1.364.61 1.364 1.363s-.61 1.363-1.364 1.363-1.364-.611-1.364-1.363.611-1.363 1.364-1.363zm18.266 0c.753 0 1.364.61 1.364 1.363s-.611 1.363-1.364 1.363-1.364-.611-1.364-1.363.61-1.363 1.364-1.363zm18.265 0c.753 0 1.364.61 1.364 1.363s-.611 1.363-1.364 1.363-1.364-.611-1.364-1.363.61-1.363 1.364-1.363zm18.265 0c.753 0 1.364.61 1.364 1.363s-.611 1.363-1.364 1.363-1.364-.611-1.364-1.363.61-1.363 1.364-1.363zm18.265 0c.753 0 1.364.61 1.364 1.363s-.611 1.363-1.364 1.363-1.364-.611-1.364-1.363.611-1.363 1.364-1.363zm18.265 0c.753 0 1.364.61 1.364 1.363s-.611 1.363-1.364 1.363-1.364-.611-1.364-1.363.611-1.363 1.364-1.363zM434.302 0c.753 0 1.364.611 1.364 1.363s-.611 1.363-1.364 1.363-1.364-.611-1.364-1.363S433.549 0 434.302 0zm18.265 0c.753 0 1.364.611 1.364 1.363s-.611 1.363-1.364 1.363-1.364-.611-1.364-1.363S451.814 0 452.566 0zm18.265 0c.754 0 1.364.611 1.364 1.363s-.61 1.363-1.364 1.363-1.364-.611-1.364-1.363S470.078 0 470.831 0zm18.265 0c.754 0 1.364.611 1.364 1.363s-.61 1.363-1.364 1.363-1.364-.611-1.364-1.363S488.343 0 489.096 0zm18.265 0c.754 0 1.364.611 1.364 1.363s-.61 1.363-1.364 1.363-1.364-.611-1.364-1.363S506.608 0 507.361 0zm18.266 0c.753 0 1.364.611 1.364 1.363s-.611 1.363-1.364 1.363-1.364-.611-1.364-1.363S524.873 0 525.626 0zm18.265 0c.753 0 1.364.611 1.364 1.363s-.611 1.363-1.364 1.363-1.364-.611-1.364-1.363A1.36 1.36 0 0 1 543.891 0z" fill="#9345e5"/><g fill="#e0a091"><path d="M61.06 290.615l-8.49.646c-.805.37-10.916 9.912-10.916 9.912s-6.042 10.1-5.079 10.926 4.365-3.248 4.626-4.091 7.19-8.674 8.099-9.213 7.75-2.352 7.982-2.647 4.845-2.614 4.962-2.983-1.185-2.549-1.185-2.549"/><path d="M48.625 295.412c.125-.336 2.842-4.165 4.302-4.232s2.04 1.038 1.981 1.222-1.177 1.386-1.961 2.082-4.322.927-4.322.927m-6.696 10.029c-.272.796-4.831 10.282-4.559 10.618s2.657.266 3.315-.466l.658-.731s1.328.01 2.114-1.142 2.224-4.068 2.932-4.662 2.63-4.695 3.053-4.786 6.767-3.96 6.767-3.96l3.298 2.095-2.797 3.916c-.994 1.324-2.946 3.907-2.513 5.928s1.988 2.328 2.004 2.324 1.559-3.58 2.032-4.125 3.933-4.483 4.939-4.994 4.683-1.693 6.008-3.306 6.063-7.948 6.063-7.948l-10.553-2.694-14.608 4.512c-.262.154-8.152 9.421-8.152 9.421"/></g><path fill="#f4ab9a" d="M38.054 299.56l4.404-1.978 4.746-2.789c.345-.11 7.395-1.771 7.395-1.771l5.249-2.676 7.005-2.389c1.085-.27 5.41-2.784 6.092-3.041s6.814-1.905 6.814-1.905 6.825 5.871 6.923 8.395c0 0-11.28 2.572-11.764 2.897a15.52 15.52 0 0 1-9.925 2.666c-1.102-.083-2.266-.115-3.062.011-1.96.31-10.815 1.288-12.469 1.311s-9.008 2.671-9.841 2.739-2.906-.667-1.568-1.471"/><path fill="#040403" d="M147.6 136.663c-7.216-23.607-23.598-30.544-32.572-31.381-16.181-1.509-24.224 2.909-36.633 16.193-16.207 17.349-17.748 12.873-40.148 19.758-52.551 16.152-44.392 85.497-14.749 108.761 47.034 36.912 79.998 6.911 102.392-28.92 24.123-38.597 24.658-74.766 21.709-84.411"/><path fill="#05006d" d="M82.622 291.884s-12.107 20.535-16.837 38.973C62.517 343.597 60.87 382 60.87 382H164s-11.509-76.8-33.132-86.632-48.246-3.484-48.246-3.484"/><path fill="#43d26c" d="M143.2 185.915c-14.974-1.407-55.532 2.268-73.929 5.245-2.628.425 12.752 91.776 8.547 107.835l-8.564 17.554s51.572 11.087 77.495-2.938l-14.49-22.129c2.583-11.836 22.427-104.486 10.941-105.565"/><path fill="#f4ab9a" d="M94.346 162.208s-2.236 54.517 10.701 55.637 13.244-32.106 13.409-36.184l.9-22.208-25.011 2.755z"/><path fill="#e0a091" d="M94.21 181.004c8.258 9.673 20.237 8.17 24.49 1.856l.657-16.203-25.011 2.755s-.197 4.805-.136 11.591m-41.352 33.374c-.276 22.733 2.522 57.327 17.025 76.933 3.789 5.122 10.338-13.28 10.338-13.28s-4.91-87.817-10.975-86.866c-5.557.871-16.16 4.503-16.388 23.214"/><path fill="#43d26c" d="M79.474 261.076c-2.053-26.94-6.031-70.57-10.228-69.912-5.557.871-18.21 4.503-18.437 23.214-.182 15.024.996 36.011 5.991 53.645 4.523-2.599 11.229-5.791 16.553-6.154 2.07-.109 4.101-.425 6.121-.792"/><g fill="#f4ab9a"><path d="M105.763 112.781c-11.362 1.683-18.267 13.809-19.225 25.266-.208 2.487-.337 5.284-.337 8.397 0 15.987 3.833 25.154 11.287 30.483s16.048 2.955 20.231 0c7.553-5.336 14.907-25.154 12.778-39.223-1.714-11.321-6.26-27.659-24.733-24.922m35.752 73.026s.753 2.4-.374 22.477c-1.315 23.408-8.218 74.984-8.218 74.984s-32.686-1.905-54.724-.863l-10.643 5.477 6.441 7.007s63.84 11.685 70.231 9.618 29.903-111.042-2.713-118.699m-64.984 5.315s-5.024-5.827-5.302-6.669-.166-14.751-.166-14.751 3.287-11.303 4.547-11.158.59 5.412.151 6.177-1.462 11.176-1.239 12.209 3.549 7.286 3.49 7.657 1.382 5.332 1.191 5.67-2.673.865-2.673.865"/><path d="M71.587 178.735c-.161.32-1.117 4.918-.173 6.035s2.148.791 2.243.622.214-1.807.19-2.856-2.26-3.802-2.26-3.802"/></g><path fill="#e0a091" d="M74.377 167c.398-.741 4.244-10.539 4.674-10.567s2.002 1.769 1.914 2.749l-.088.98s.911.968.601 2.328-1.466 4.398-1.42 5.322-1.65 5.124-1.429 5.495 1.703 7.659 1.703 7.659l3.778.995.965-4.716c.294-1.63.857-4.819 2.632-5.877s3.057-.124 3.065-.11-1.561 3.58-1.638 4.297-.608 5.935-.298 7.021 1.945 4.588 1.666 6.657-1.697 9.855-1.697 9.855l-9.151-5.911-6.632-13.788c-.065-.298 1.355-12.39 1.355-12.39"/><path fill="#f4ab9a" d="M89.123 197.334c-.689-3.456-2.681-5.252-5.261-7.648-.81-.752-1.626-1.584-2.075-2.254-1.106-1.649-6.413-8.813-7.521-10.041s-4.171-8.427-4.688-9.084-2.465-1.679-2.143-.15c0 0 1.401 3.908 1.547 4.577l1.186 5.379c.153.328 3.733 6.631 3.733 6.631l1.611 5.672c.257.644 2.476 5.786 3.016 6.765s1.139 4.399 1.415 5.074l-9.275 27.484c-1.734 4.103-9.249 32.581-10.799 40.162-1.036 5.067 3.355 22.008 8.213 24.109 4.735 2.048 10.352 2.735 14.962-24.109 1.166-6.79 6.318-71.378 6.082-72.566"/><path fill="#43d26c" d="M141.474 185.782s-.96.22-1.2 22.501c-.129 11.985-2.012 31.313-3.89 47.343 7.23-.43 17.437-.02 24.456.98 5.372-33.461 2.389-70.099-19.365-70.824"/><path fill="#f4ab9a" d="M81.077 152.63c1.318 3.004 4.032 4.716 6.061 3.824s2.604-4.05 1.285-7.055-4.032-4.716-6.06-3.823-2.604 4.05-1.285 7.054m53.164 1.256c-1.318 3.004-4.032 4.716-6.061 3.824s-2.604-4.05-1.285-7.055 4.032-4.716 6.06-3.823 2.604 4.05 1.285 7.054"/><path fill="#a9c4d4" d="M67.231 157.21l9.522 35.16c.274 1.014 1.194 1.717 2.243 1.717h10.293c1.532 0 2.645-1.458 2.242-2.938l-9.535-34.996c-.272-.999-1.171-1.697-2.205-1.714l-10.28-.164c-1.546-.024-2.684 1.441-2.28 2.935"/><path fill="#fff" d="M78.995 192.887c-.506 0-.953-.342-1.085-.831l-9.522-35.16c-.093-.341-.023-.698.192-.978s.54-.442.892-.442l10.299.164a1.13 1.13 0 0 1 1.067.829l9.535 34.996a1.12 1.12 0 0 1-.191.979c-.214.281-.54.442-.894.442H78.995z"/><path fill="#040403" d="M109.865 112.477l-1.101 9.22s-15.439-1.197-22.168 14.15c0 0 3.403-25.708 21.939-26.395 22.378-.83 21.663 26.837 21.663 26.837-5.18-10.124-11.512-14.591-19.428-14.591l-.259-9.22h-.646z"/><path fill="#315eba" d="M78.683 163.816c.269 1.006-.258 1.811-1.181 1.792s-1.894-.863-2.152-1.877c-.256-1.006.285-1.794 1.202-1.766s1.865.853 2.132 1.852"/><path fill="#b6bad3" d="M80.875 167.694l-5.723-.092-.12-.483 5.713.099z"/><path fill="#d4dcf0" d="M77.11 173.818c.154.613-.159 1.112-.701 1.113s-1.108-.499-1.258-1.115.168-1.106.708-1.104 1.098.496 1.251 1.106m3.644.003c.161.607-.139 1.102-.671 1.103s-1.095-.495-1.253-1.105.148-1.096.678-1.094 1.086.492 1.246 1.096m3.31.003c.167.602-.121 1.093-.645 1.094s-1.085-.491-1.248-1.095.13-1.087.652-1.085 1.075.487 1.241 1.087m-5.789 4.623c.159.633-.156 1.155-.705 1.162s-1.126-.505-1.281-1.142.165-1.149.713-1.153 1.115.501 1.274 1.132m3.694-.039c.166.627-.135 1.144-.675 1.151s-1.113-.5-1.276-1.131.144-1.138.682-1.142 1.103.497 1.269 1.122m3.355-.035c.172.622-.117 1.134-.647 1.142s-1.102-.496-1.271-1.122.126-1.128.654-1.132 1.092.493 1.264 1.112"/><path fill="#e84e3c" d="M83.898 184.178c.244.916-.179 1.68-.948 1.702s-1.593-.711-1.829-1.633c-.235-.916.198-1.667.963-1.683s1.572.705 1.815 1.614"/><path fill="#fff" d="M81.666 184.114c.014-.025.035-.044.059-.056.143-.07.381-.155.707-.163a2.23 2.23 0 0 1 .779.126c.086.03.161.117.187.215l.071.27-.466.01-.072-.269-.008-.003c-.007-.003-.174-.066-.409-.06s-.366.077-.371.08l-.007.004.067.272-.481.012-.071-.272c-.016-.062-.011-.122.015-.166"/><path fill="#8aa6b6" d="M174.985 388.558H50.543c-1.405 0-2.543-1.139-2.543-2.543v-1.472c0-1.405 1.138-2.543 2.543-2.543h124.442c1.405 0 2.543 1.138 2.543 2.543v1.472c0 1.404-1.138 2.543-2.543 2.543"/><g stroke="#9551d1"><path d="M195 45.564s11.222 1.644 20.84 0c10.574-1.808 19.423-10.092 29.875-12.746 12.764-3.242 25.752 5.931 36.108 12.694 9.397 6.138 18.796 12.666 29.492 15.871 20.451 6.132 36.961-6.248 52.009-19.108 13.153-11.239 30.322-17.708 47.262-12.38 16.76 5.27 29.741 20.476 47.027 23.458 8.652 1.493 17.511-.353 25.502-3.835 6.485-2.824 14.543-9.667 22.884-3.209"/><path d="M195 45.567c33.657 3.401 49.54 15.073 75.049 3.292 25.943-11.986 53.693-20.656 82.162-15.226 23.103 4.407 44.78 14.49 67.432 20.729 24.081 6.63 46.175 6.752 69.276-3.311 5.419-2.36 11.437-6.38 17.08-4.713" opacity=".5"/><path d="M195 45.433c33.657-3.401 49.54-15.073 75.049-3.292 25.943 11.986 53.693 20.656 82.162 15.226 23.103-4.407 44.78-14.49 67.432-20.729 24.081-6.63 46.175-6.752 69.276 3.311 5.419 2.36 11.437 6.38 17.08 4.713" opacity=".5"/><path d="M195 45.194c40.068-5 71.288-.807 107.258 4.451 36.597 5.351 73.585-.068 109.949-4.795 30.147-3.916 64.244-9.267 93.793 1.098" opacity=".1"/><path d="M195 44.37c32.055-1.595 45.184 5.789 67.919 6.558 22.847.775 44.448-7.037 66.55-11.456 22.406-4.483 45.873-4.747 68.329-.412 20.528 3.963 39.809 14.595 61.183 13.523 9.209-.463 21.632-5.116 26.697-8.276 5.033-3.143 13.474-5.901 20.323.785"/></g><g transform="translate(148 17)"><g filter="url(#A)"><use xlink:href="#F" fill="#000" filter="url(#B)"/><use xlink:href="#F" fill="#fff" stroke="#b36efc" stroke-width="1.9"/></g><path fill="#9345e5" d="M33.873 46.596c-.562 0-1.127-.131-1.632-.377-2.955-1.445-7.419-4.112-11.895-8.619s-7.127-8.998-8.562-11.973c-.699-1.449-.404-3.193.735-4.339l3.127-3.127 6.402 6.483-3.076 3.137.064.145c.053.12 1.333 2.967 4.576 6.231s6.042 4.522 6.159 4.575l.143.063 3.177-3.095 6.578 6.632-3.114 3.145c-.719.723-1.671 1.121-2.681 1.121m6.072-17.371l-2.492-.411c.025-.163.597-4.141-2.471-7.13s-6.723-2.347-6.877-2.318l-.479-2.495c.204-.042 5.073-.947 9.111 2.986s3.243 9.147 3.207 9.367"/><path d="M45.502 30.128l-2.492-.411c.01-.064 1.01-6.851-4.082-11.812-5.127-4.994-11.344-3.836-11.406-3.824l-.486-2.494c.305-.061 7.583-1.414 13.647 4.492s4.872 13.72 4.818 14.049M34.677 28.62l-2.492-.412c.008-.057.225-1.688-1.013-2.895-1.247-1.215-2.753-.96-2.767-.956l-.485-2.493c.112-.024 2.802-.526 5.007 1.623s1.769 5.011 1.749 5.133" fill="#f4e6ff"/></g><g transform="translate(183 84)"><g transform="translate(0 16)"><use xlink:href="#G" fill="#000" filter="url(#C)"/><use xlink:href="#G" fill="#fff"/><g fill="#33cca2"><use xlink:href="#J"/><use xlink:href="#K"/><use xlink:href="#L"/><use xlink:href="#J" x="9.837"/><use xlink:href="#L" x="6.558"/><use xlink:href="#J" x="16.396"/><use xlink:href="#J" x="19.675"/><path d="M55.102 17.02h1.64v31.2h-1.64z"/><use xlink:href="#K" x="22.954"/><use xlink:href="#J" x="29.512"/><use xlink:href="#J" x="32.791"/><use xlink:href="#L" x="29.512"/><use xlink:href="#J" x="39.349"/><use xlink:href="#J" x="42.629"/><path d="M78.056 18.662h1.64v26.274h-1.64z"/><use xlink:href="#J" x="49.187"/><use xlink:href="#J" x="52.466"/><path d="M87.893 17.02h1.64v31.2h-1.64z"/><use xlink:href="#L" x="52.466"/><use xlink:href="#K" x="59.024"/><use xlink:href="#J" x="65.582"/><use xlink:href="#L" x="62.304"/><use xlink:href="#J" x="72.141"/><path d="M107.568 20.304h1.64v22.989h-1.64z"/><use xlink:href="#K" x="75.42"/><use xlink:href="#J" x="81.978"/><use xlink:href="#J" x="85.257"/><use xlink:href="#J" x="88.536"/><path d="M123.963 18.662h1.64v26.274h-1.64z"/><use xlink:href="#J" x="95.095"/></g><g fill="#c0cae0"><rect width="229" height="8" rx="4" x="33" y="58.62"/><rect width="94" height="8" y="99.62" rx="4" x="33"/><rect width="156" height="8" x="106" y="78.62" rx="4"/></g><g fill="#5887a7" fill-rule="nonzero"><path d="M41.606 86.62v-9.1h-1.391v6.526l-4.81-6.526h-1.222v9.1h1.391v-6.526l4.797 6.526zm3.055-2.951h4.914a4.21 4.21 0 0 0 .065-.728c0-1.755-1.287-3.055-3.055-3.055-1.846 0-3.276 1.495-3.276 3.458 0 1.937 1.209 3.432 3.276 3.432 1.352 0 2.236-.494 2.912-1.56l-.936-.611c-.403.715-1.04 1.04-1.911 1.04-1.17 0-1.898-.897-1.989-1.976zm3.588-1.027h-3.51c.234-.923.858-1.638 1.872-1.638.923 0 1.586.741 1.638 1.638zm3.783 1.027h4.914a4.21 4.21 0 0 0 .065-.728c0-1.755-1.287-3.055-3.055-3.055-1.846 0-3.276 1.495-3.276 3.458 0 1.937 1.209 3.432 3.276 3.432 1.352 0 2.236-.494 2.912-1.56l-.936-.611c-.403.715-1.04 1.04-1.911 1.04-1.17 0-1.898-.897-1.989-1.976zm3.588-1.027h-3.51c.234-.923.858-1.638 1.872-1.638.923 0 1.586.741 1.638 1.638zm9.061-5.772h-1.339v3.874c-.52-.546-1.3-.858-2.041-.858-1.95 0-3.25 1.664-3.25 3.432 0 1.924 1.365 3.458 3.224 3.458.767 0 1.625-.338 2.093-1.027l.039.871h1.274v-9.75zm-1.339 5.174v2.353c-.338.78-1.17 1.17-1.846 1.17-1.287 0-2.08-1.053-2.08-2.223 0-1.079.676-2.249 2.106-2.249.65 0 1.378.325 1.82.949zm14.183 4.576v-9.1h-1.391v3.796h-4.589V77.52h-1.391v9.1h1.391v-4.082h4.589v4.082z"/><use xlink:href="#M"/><path d="M88.458 76.87h-1.339v9.75h1.339z"/><use xlink:href="#N"/></g></g><g transform="translate(264)"><use xlink:href="#H" fill="#000" filter="url(#D)"/><use xlink:href="#H" fill="#fbf6ff" stroke="#b36efc" stroke-width="2"/><g fill="#9345e5"><rect width="2" height="14" x="9" y="9" rx="1"/><rect width="2" height="8" x="12" y="12" rx="1"/><rect width="2" height="6" x="18" y="13" rx="1"/><rect width="2" height="12" x="21" y="10" rx="1"/><rect width="2" height="4" x="24" y="14" rx="1"/><rect width="2" height="4" y="14" rx="1" x="6"/><rect width="2" height="20" x="15" rx="1" y="6"/></g></g></g><g transform="translate(258 244)"><g transform="translate(16.216 16)"><use xlink:href="#I" fill="#000" filter="url(#E)"/><use xlink:href="#I" fill="#fff"/><g fill="#33cca2"><use xlink:href="#J" x="-12.216" y="-0.001"/><use xlink:href="#K" x="-12.216" y="-0.001"/><path d="M26.49 23.587h1.64V41.65h-1.64z"/><use xlink:href="#J" x="-2.379" y="-0.001"/><path d="M33.048 23.587h1.64V41.65h-1.64zm3.28-5.789h1.64v28h-1.64z"/><use xlink:href="#J" x="7.459" y="-0.001"/><path d="M42.886 26.019h1.64v12h-1.64z"/><use xlink:href="#K" x="10.738" y="-0.001"/><use xlink:href="#J" x="17.296" y="-0.001"/><use xlink:href="#J" x="20.575" y="-0.001"/><path d="M56.002 24.651h1.64v14h-1.64z"/><use xlink:href="#J" x="27.133" y="-0.001"/><path d="M62.561 21.798h1.64v20h-1.64zm3.279 8h1.64v4h-1.64z"/><use xlink:href="#J" x="36.971" y="-0.001"/><use xlink:href="#J" x="40.25" y="-0.001"/><path d="M75.677 25.619h1.64v14h-1.64zm3.279-6h1.64v25h-1.64z"/><use xlink:href="#K" x="46.808" y="-0.001"/><use xlink:href="#J" x="53.366" y="-0.001"/><path d="M88.794 23.587h1.64V41.65h-1.64z"/><use xlink:href="#J" x="59.925" y="-0.001"/><path d="M95.352 20.303h1.64v22.989h-1.64z"/><use xlink:href="#K" x="63.204" y="-0.001"/><use xlink:href="#J" x="69.762" y="-0.001"/><use xlink:href="#J" x="73.041" y="-0.001"/><use xlink:href="#J" x="76.32" y="-0.001"/><path d="M111.747 25.798h1.64v12h-1.64z"/><use xlink:href="#J" x="82.879" y="-0.001"/></g><g fill="#c0cae0"><rect width="94" height="8" x="155.784" rx="4" y="58.619"/><rect width="115" height="8" y="78.619" rx="4" x="20.784"/></g><g fill="#5887a7" fill-rule="nonzero"><path d="M26.764 59.339l.845-1.001a4.49 4.49 0 0 0-2.873-.975c-1.482 0-2.782.806-2.782 2.522 0 1.495 1.3 2.106 2.535 2.548 1.014.351 1.963.689 1.963 1.638 0 1.04-.871 1.469-1.755 1.469-.923 0-1.56-.273-2.379-1.092l-.975.923c.975.962 1.989 1.404 3.341 1.404 1.43 0 3.25-.806 3.25-2.834 0-1.781-1.521-2.366-2.808-2.808-.936-.325-1.781-.598-1.781-1.365 0-.754.637-1.17 1.521-1.17.715 0 1.456.338 1.898.741zm8.814 7.28v-6.578h-1.339v4.355c-.429.689-1.131 1.17-1.833 1.17-.533 0-.884-.195-1.079-.507-.286-.455-.312-1.118-.312-1.716v-3.302h-1.339v3.419c0 .988.13 1.859.585 2.483.39.52 1.001.832 1.872.832.845 0 1.638-.429 2.132-1.196l.039 1.04h1.274zm3.354-6.578h-1.274v6.578h1.339v-4.42c.364-.637.858-1.014 1.495-1.014.247 0 .429.039.624.143l.273-1.352a2.79 2.79 0 0 0-.754-.091c-.689 0-1.274.494-1.664 1.183l-.039-1.027zm4.251 3.627h4.914a4.21 4.21 0 0 0 .065-.728c0-1.755-1.287-3.055-3.055-3.055-1.846 0-3.276 1.495-3.276 3.458 0 1.937 1.209 3.432 3.276 3.432 1.352 0 2.236-.494 2.912-1.56l-.936-.611c-.403.715-1.04 1.04-1.911 1.04-1.17 0-1.898-.897-1.989-1.976zm3.588-1.027h-3.51c.234-.923.858-1.638 1.872-1.638.923 0 1.586.741 1.638 1.638zm10.712-2.6h-1.352l-1.378 4.849h-.026l-1.17-4.849h-1.443l1.82 6.578h1.469l1.352-4.784h.026l1.326 4.784h1.417l1.911-6.578h-1.378l-1.261 4.849h-.039z"/><use xlink:href="#M" x="-17.091" y="-20.001"/><path d="M77.789 60.041h-1.352l-1.378 4.849h-.026l-1.17-4.849H72.42l1.82 6.578h1.469l1.352-4.784h.026l1.326 4.784h1.417l1.911-6.578h-1.378l-1.261 4.849h-.039zm6.513 6.578v-6.578h-1.339v6.578h1.339zm0-7.774v-1.391h-1.339v1.391h1.339zm3.419-1.976h-1.339v9.75h1.339zm3.419 0h-1.339v9.75h1.339zm6.669 0H96.47v9.75h1.339v-4.355c.429-.689 1.131-1.17 1.833-1.17.533 0 .884.195 1.079.507.286.455.312 1.118.312 1.716v3.302h1.339V63.2c0-.988-.13-1.859-.585-2.483-.39-.52-1.001-.832-1.872-.832-.832 0-1.612.429-2.106 1.17v-4.186zm7.41 6.799h4.914a4.21 4.21 0 0 0 .065-.728c0-1.755-1.287-3.055-3.055-3.055-1.846 0-3.276 1.495-3.276 3.458 0 1.937 1.209 3.432 3.276 3.432 1.352 0 2.236-.494 2.912-1.56l-.936-.611c-.403.715-1.04 1.04-1.911 1.04-1.17 0-1.898-.897-1.989-1.976zm3.588-1.027h-3.51c.234-.923.858-1.638 1.872-1.638.923 0 1.586.741 1.638 1.638zm4.29-5.772h-1.339v9.75h1.339z"/><use xlink:href="#N" x="24.639" y="-20.001"/><path d="M125.642 60.041l2.392 6.331-1.04 2.756 1.183.468 3.705-9.555h-1.456l-1.664 4.732h-.026l-1.612-4.732zm10.205-.156c-1.95 0-3.38 1.521-3.38 3.445s1.43 3.445 3.38 3.445c1.937 0 3.38-1.521 3.38-3.445s-1.443-3.445-3.38-3.445zm2.015 3.445c0 1.222-.845 2.236-2.015 2.236s-2.015-1.014-2.015-2.236c0-1.235.845-2.236 2.015-2.236s2.015 1.001 2.015 2.236zm8.762 3.289v-6.578h-1.339v4.355c-.429.689-1.131 1.17-1.833 1.17-.533 0-.884-.195-1.079-.507-.286-.455-.312-1.118-.312-1.716v-3.302h-1.339v3.419c0 .988.13 1.859.585 2.483.39.52 1.001.832 1.872.832.845 0 1.638-.429 2.132-1.196l.039 1.04h1.274z"/></g></g><use xlink:href="#K" fill="#000" filter="url(#D)" href="#H"/><use xlink:href="#K" fill="#fbf6ff" stroke="#b36efc" stroke-width="2" href="#H"/><g fill="#9345e5"><rect width="2" height="14" x="9" y="9" rx="1"/><rect width="2" height="8" x="12" y="12" rx="1"/><rect width="2" height="6" x="18" y="13" rx="1"/><rect width="2" height="12" x="21" y="10" rx="1"/><rect width="2" height="4" x="24" y="14" rx="1"/><rect width="2" height="4" y="14" rx="1" x="6"/><rect width="2" height="20" x="15" rx="1" y="6"/></g></g></g></svg>